<svg xmlns="http://www.w3.org/2000/svg" xmlns:xlink="http://www.w3.org/1999/xlink" viewBox="0 0 638.59 703.91">
  <defs>
    <linearGradient id="a" x1="449.65" y1="40.61" x2="567.65" y2="223.89" gradientUnits="userSpaceOnUse">
      <stop offset="0" stop-color="#4fd9f5"/>
      <stop offset="1" stop-color="#4e61fc"/>
    </linearGradient>
    <linearGradient id="b" x1="538.43" y1="215.15" x2="488.86" y2="421.12" gradientUnits="userSpaceOnUse">
      <stop offset="0" stop-color="#41b6f7"/>
      <stop offset="1" stop-color="#3979ee"/>
    </linearGradient>
    <linearGradient id="c" x1="373.96" y1="427.93" x2="516.61" y2="641.91" gradientUnits="userSpaceOnUse">
      <stop offset="0" stop-color="#4ddaf7"/>
      <stop offset=".29" stop-color="#49d2f7"/>
      <stop offset="1" stop-color="#5162fa"/>
    </linearGradient>
    <linearGradient id="d" x1="412.88" y1="284.63" x2="412.88" y2="370.17" xlink:href="#a"/>
    <linearGradient id="e" x1="1501.12" y1="40.61" x2="1619.12" y2="223.89" gradientTransform="translate(1690.0667) scale(-1 1)" gradientUnits="userSpaceOnUse">
      <stop offset="0" stop-color="#faa555"/>
      <stop offset="1" stop-color="#f44e46"/>
    </linearGradient>
    <linearGradient id="f" x1="1589.9" y1="215.15" x2="1540.34" y2="421.12" gradientTransform="translate(1690.0667) scale(-1 1)" gradientUnits="userSpaceOnUse">
      <stop offset="0" stop-color="#fb894c"/>
      <stop offset=".59" stop-color="#fa504d"/>
      <stop offset="1" stop-color="#d93b56"/>
    </linearGradient>
    <linearGradient id="g" x1="1421.89" y1="430.47" x2="1565.77" y2="646.3" gradientTransform="translate(1690.0667) scale(-1 1)" gradientUnits="userSpaceOnUse">
      <stop offset="0" stop-color="#faa050"/>
      <stop offset=".7" stop-color="#fd474d"/>
      <stop offset="1" stop-color="#ab2d60"/>
    </linearGradient>
    <linearGradient id="h" x1="225.72" y1="284.63" x2="225.72" y2="370.17" xlink:href="#e"/>
  </defs>
  <path fill="url(#a)" d="M569.13,1.22c6.21-.82,12.61-.81,18.84-.04,15.13-.03,27.09,11.03,31.76,25.86,8.28,26.330,9.86,53.93,5.65,81.25-8.6,55.79-32.99,94.51-73.68,131.81l-7.57-2.5c-22.67-16.14-47.41-29.19-73.27-39.43-1.93-2.24-3.82-2.92-5.66-2.03-35.44-35.27-81.25-54.11-132.43-56.46,8.85-19.38,21.93-34.81,37.83-48.18,44.58-37.51,107.61-67.75,163.61-83.64,11.960-3.39,23.25-6.61,34.910-6.64Z"/>
  <path fill="#47aefa" d="M587.97,1.18l-18.84.04c6.02-1.64,12.85-1.6,18.84-.04Z"/>
  <path fill="url(#b)" d="M551.7,240.1l13.91,12.28,16.45,16.4c-.6,2.3.32,4,1.35,6.33,16.47,37.45,6.06,71.9-20.63,101.59-14.97,16.66-31.25,31.15-50.4,42.74l-25.24,15.27c-.64.39-1.57-.53-1.58-1.27,65.82-71.82,45.53-171.72-20.36-237.3-.32-.94-.14-2.12.84-2.26.6-.08,1.19.26,2.12.61,30.08,11.58,58.13,26.57,83.53,45.61Z"/>
  <path fill="url(#c)" d="M636.39,383.6l-3.24-17.42c-6.89-37.1-25.94-70.28-51.08-97.41-1.71.53-3.02,1.34-2.48,2.99,33.67,69.13-31.36,125.55-86.23,156.33l-6.25,5.28c.89-.96.38-.93-1.54.07-16.03,17.49-68.14,25.83-81.12,80.22-5.02,21.08-11.03,41.37-21.44,60.44-3.87,7.08-8.270,12.2-12.6,18.85-2.09,3.21-4.4,5.45-6.52,8.41-22.33,25.71-45.36,48.15-76.96,62.9-17.69,8.26-36.67,13.53-56.16,15.1l-5.05,2.79c54.24,21.09,113.52,26.48,170.89,16.09,100.07-18.12,183.22-85.35,221.6-179.45,17.42-42.7,24.33-89.2,18.18-135.19ZM520.49,573.8c-14.01,15.24-35.83,17.21-52.09,4.14-16.69-13.43-18.13-39.61-5.14-57.15,11.44-15.44,33.16-19.95,49.55-9.8,21.91,13.57,25.23,43.73,7.68,62.81Z"/>
  <path fill="url(#d)" d="M435.96,348.44c-.1,13-11.35,21.5-22.76,21.73-11.25.22-22.77-8.41-22.98-20.8l-.71-40.76c-.26-14.92,13.54-26.63,28.1-23.46,10.81,2.36,18.73,12.38,18.64,23.42l-.3,39.87Z"/>
  <path fill="url(#e)" d="M69.46,1.22c-6.21-.82-12.61-.81-18.84-.04-15.13-.03-27.09,11.03-31.76,25.86-8.28,26.33-9.86,53.93-5.65,81.25,8.6,55.79,32.99,94.51,73.68,131.81l7.57-2.5c22.67-16.14,47.41-29.19,73.27-39.43,1.93-2.24,3.82-2.92,5.66-2.03,35.44-35.27,81.25-54.11,132.43-56.46-8.85-19.38-21.93-34.81-37.83-48.18C223.4,53.99,160.38,23.74,104.38,7.86c-11.96-3.39-23.25-6.61-34.91-6.64Z"/>
  <path fill="url(#f)" d="M86.89,240.1l-13.91,12.28-16.45,16.4c.6,2.3-.32,4-1.35,6.33-16.47,37.45-6.06,71.9,20.63,101.59,14.97,16.66,31.25,31.15,50.4,42.74l25.24,15.27c.64.39,1.57-.53,1.58-1.27-65.820-71.82-45.53-171.72,20.36-237.3.32-.94.14-2.12-.84-2.26-.6-.08-1.19.26-2.12.61-30.08,11.58-58.13,26.57-83.53,45.61Z"/>
  <path fill="url(#g)" d="M20.39,518.79c38.38,94.1,120.62,167.43,221.6,179.45,43.12,5.13,115.12,11.26,173.31-4l-30.48-10.77c-27.07-12.12-32.98-15.25-49.99-24.83-34.1-19.2-37.79-31.57-60.12-57.28-2.06-3.05-3.68-4.93-6.21-7.81-5.24-5.95-9.04-12.37-12.91-19.45-10.41-19.07-16.42-39.36-21.44-60.44-12.98-54.39-65.09-62.73-81.12-80.22-1.92-1-2.43-1.03-1.54-.07l-6.25-5.28c-54.87-30.78-119.9-87.2-86.23-156.33.54-1.65-.77-2.46-2.48-2.99-25.14,27.13-44.19,60.31-51.08,97.41l-3.24,17.42c-6.15,45.99.76,92.49,18.18,135.19ZM125.79,510.99c16.39-10.15,38.11-5.640,49.55,9.8,12.99,17.54,11.55,43.72-5.14,57.15-16.26,13.07-38.08,11.1-52.09-4.14-17.55-19.08-14.23-49.24,7.68-62.81Z"/>
  <path fill="url(#h)" d="M202.64,348.44c.1,13,11.35,21.5,22.76,21.73,11.25.22,22.77-8.41,22.98-20.8l.71-40.76c.26-14.92-13.54-26.63-28.1-23.46-10.81,2.36-18.73,12.38-18.64,23.42l.3,39.87Z"/>
</svg>
